<mxfile host="65bd71144e">
    <diagram id="XDR4TSZKpzs0-M95tIkv" name="第 1 页">
        <mxGraphModel dx="1454" dy="590" grid="1" gridSize="10" guides="1" tooltips="1" connect="1" arrows="1" fold="1" page="1" pageScale="1" pageWidth="1654" pageHeight="1169" math="0" shadow="0">
            <root>
                <mxCell id="0"/>
                <mxCell id="1" parent="0"/>
                <mxCell id="26" value="" style="edgeStyle=none;rounded=0;endArrow=classic;endFill=1;startArrow=none;startFill=0;dashed=1;dashPattern=8 8;" edge="1" parent="1" source="23">
                    <mxGeometry relative="1" as="geometry">
                        <mxPoint x="510" y="370" as="targetPoint"/>
                    </mxGeometry>
                </mxCell>
                <mxCell id="23" value="" style="rounded=1;fillColor=#b0e3e6;strokeColor=#0e8088;opacity=20;" vertex="1" parent="1">
                    <mxGeometry x="240" y="310" width="180" height="120" as="geometry"/>
                </mxCell>
                <mxCell id="11" value="" style="edgeStyle=none;exitX=0.5;exitY=1;exitDx=0;exitDy=0;entryX=0.5;entryY=0;entryDx=0;entryDy=0;fillColor=#dae8fc;strokeColor=#6c8ebf;" edge="1" parent="1" source="2" target="3">
                    <mxGeometry relative="1" as="geometry"/>
                </mxCell>
                <mxCell id="2" value="需求分析" style="rounded=0;fillColor=#dae8fc;strokeColor=#6c8ebf;" vertex="1" parent="1">
                    <mxGeometry x="270" y="100" width="120" height="30" as="geometry"/>
                </mxCell>
                <mxCell id="12" value="" style="edgeStyle=none;exitX=0.5;exitY=1;exitDx=0;exitDy=0;entryX=0.5;entryY=0;entryDx=0;entryDy=0;fillColor=#dae8fc;strokeColor=#6c8ebf;" edge="1" parent="1" source="3" target="4">
                    <mxGeometry relative="1" as="geometry"/>
                </mxCell>
                <mxCell id="3" value="功能划分" style="rounded=0;fillColor=#dae8fc;strokeColor=#6c8ebf;" vertex="1" parent="1">
                    <mxGeometry x="270" y="150" width="120" height="30" as="geometry"/>
                </mxCell>
                <mxCell id="13" value="" style="edgeStyle=none;exitX=0.5;exitY=1;exitDx=0;exitDy=0;entryX=0.5;entryY=0;entryDx=0;entryDy=0;" edge="1" parent="1" source="4" target="5">
                    <mxGeometry relative="1" as="geometry"/>
                </mxCell>
                <mxCell id="4" value="HDL 描述" style="rounded=0;fillColor=#dae8fc;strokeColor=#6c8ebf;" vertex="1" parent="1">
                    <mxGeometry x="270" y="200" width="120" height="30" as="geometry"/>
                </mxCell>
                <mxCell id="14" value="" style="edgeStyle=none;exitX=0.5;exitY=1;exitDx=0;exitDy=0;entryX=0.5;entryY=0;entryDx=0;entryDy=0;" edge="1" parent="1" source="5" target="6">
                    <mxGeometry relative="1" as="geometry"/>
                </mxCell>
                <mxCell id="19" value="" style="edgeStyle=none;rounded=0;exitX=1;exitY=0.5;exitDx=0;exitDy=0;entryX=1;entryY=0.5;entryDx=0;entryDy=0;" edge="1" parent="1" source="5" target="4">
                    <mxGeometry relative="1" as="geometry">
                        <mxPoint x="440" y="280" as="targetPoint"/>
                        <Array as="points">
                            <mxPoint x="440" y="280"/>
                            <mxPoint x="440" y="215"/>
                        </Array>
                    </mxGeometry>
                </mxCell>
                <mxCell id="22" value="NO" style="edgeLabel;align=center;verticalAlign=middle;resizable=0;points=[];" vertex="1" connectable="0" parent="19">
                    <mxGeometry x="-0.8032" y="2" relative="1" as="geometry">
                        <mxPoint x="5" y="2" as="offset"/>
                    </mxGeometry>
                </mxCell>
                <mxCell id="5" value="功能仿真" style="rhombus;fillColor=#f8cecc;strokeColor=#b85450;" vertex="1" parent="1">
                    <mxGeometry x="260" y="250" width="140" height="60" as="geometry"/>
                </mxCell>
                <mxCell id="15" value="" style="edgeStyle=none;exitX=0.5;exitY=1;exitDx=0;exitDy=0;entryX=0.5;entryY=0;entryDx=0;entryDy=0;fillColor=#d5e8d4;strokeColor=#82b366;" edge="1" parent="1" source="6" target="8">
                    <mxGeometry relative="1" as="geometry"/>
                </mxCell>
                <mxCell id="6" value="逻辑综合" style="rounded=0;fillColor=#d5e8d4;strokeColor=#82b366;" vertex="1" parent="1">
                    <mxGeometry x="270" y="330" width="120" height="30" as="geometry"/>
                </mxCell>
                <mxCell id="16" value="" style="edgeStyle=none;exitX=0.5;exitY=1;exitDx=0;exitDy=0;entryX=0.5;entryY=0;entryDx=0;entryDy=0;" edge="1" parent="1" source="8" target="9">
                    <mxGeometry relative="1" as="geometry"/>
                </mxCell>
                <mxCell id="8" value="布局布线" style="rounded=0;fillColor=#d5e8d4;strokeColor=#82b366;" vertex="1" parent="1">
                    <mxGeometry x="270" y="380" width="120" height="30" as="geometry"/>
                </mxCell>
                <mxCell id="17" value="" style="edgeStyle=none;exitX=0.5;exitY=1;exitDx=0;exitDy=0;entryX=0.5;entryY=0;entryDx=0;entryDy=0;" edge="1" parent="1" source="9" target="10">
                    <mxGeometry relative="1" as="geometry"/>
                </mxCell>
                <mxCell id="20" value="" style="edgeStyle=none;rounded=0;exitX=1;exitY=0.5;exitDx=0;exitDy=0;endArrow=none;endFill=0;" edge="1" parent="1" source="9">
                    <mxGeometry relative="1" as="geometry">
                        <mxPoint x="440" y="280" as="targetPoint"/>
                        <Array as="points">
                            <mxPoint x="440" y="460"/>
                        </Array>
                    </mxGeometry>
                </mxCell>
                <mxCell id="21" value="NO" style="edgeLabel;align=center;verticalAlign=middle;resizable=0;points=[];" vertex="1" connectable="0" parent="20">
                    <mxGeometry x="-0.8841" y="1" relative="1" as="geometry">
                        <mxPoint x="7" y="1" as="offset"/>
                    </mxGeometry>
                </mxCell>
                <mxCell id="9" value="时序仿真" style="rhombus;fillColor=#f8cecc;strokeColor=#b85450;" vertex="1" parent="1">
                    <mxGeometry x="260" y="430" width="140" height="60" as="geometry"/>
                </mxCell>
                <mxCell id="33" value="" style="edgeStyle=none;rounded=0;dashed=1;dashPattern=8 8;startArrow=none;startFill=0;endArrow=classic;endFill=1;exitX=1;exitY=0.5;exitDx=0;exitDy=0;entryX=0.5;entryY=1;entryDx=0;entryDy=0;" edge="1" parent="1" source="10" target="31">
                    <mxGeometry relative="1" as="geometry">
                        <mxPoint x="510" y="370" as="targetPoint"/>
                        <Array as="points">
                            <mxPoint x="545" y="525"/>
                        </Array>
                    </mxGeometry>
                </mxCell>
                <mxCell id="10" value="下载" style="rounded=0;fillColor=#ffe6cc;strokeColor=#d79b00;" vertex="1" parent="1">
                    <mxGeometry x="270" y="510" width="120" height="30" as="geometry"/>
                </mxCell>
                <mxCell id="24" value="" style="rounded=1;fillColor=#b1ddf0;strokeColor=#10739e;opacity=20;" vertex="1" parent="1">
                    <mxGeometry x="240" y="190" width="180" height="50" as="geometry"/>
                </mxCell>
                <mxCell id="27" value="" style="edgeStyle=none;rounded=0;endArrow=classic;endFill=1;startArrow=none;startFill=0;dashed=1;dashPattern=8 8;" edge="1" parent="1">
                    <mxGeometry relative="1" as="geometry">
                        <mxPoint x="510" y="200" as="targetPoint"/>
                        <mxPoint x="420" y="200" as="sourcePoint"/>
                    </mxGeometry>
                </mxCell>
                <mxCell id="28" value="" style="edgeStyle=none;rounded=0;endArrow=classic;endFill=1;startArrow=none;startFill=0;dashed=1;dashPattern=8 8;" edge="1" parent="1">
                    <mxGeometry relative="1" as="geometry">
                        <mxPoint x="510" y="270" as="targetPoint"/>
                        <mxPoint x="380" y="270" as="sourcePoint"/>
                    </mxGeometry>
                </mxCell>
                <mxCell id="29" value="SpinalHDL" style="text;strokeColor=none;fillColor=none;align=center;verticalAlign=middle;rounded=0;opacity=20;" vertex="1" parent="1">
                    <mxGeometry x="520" y="180" width="60" height="40" as="geometry"/>
                </mxCell>
                <mxCell id="30" value="Verilator + Qt" style="text;strokeColor=none;fillColor=none;align=center;verticalAlign=middle;rounded=0;opacity=20;" vertex="1" parent="1">
                    <mxGeometry x="520" y="250" width="80" height="40" as="geometry"/>
                </mxCell>
                <mxCell id="31" value="Procise" style="text;strokeColor=none;fillColor=none;align=center;verticalAlign=middle;rounded=0;opacity=20;" vertex="1" parent="1">
                    <mxGeometry x="520" y="350" width="50" height="40" as="geometry"/>
                </mxCell>
            </root>
        </mxGraphModel>
    </diagram>
</mxfile>